<?xml version="1.0" encoding="UTF-8"?>
<svg version="1.1" xmlns="http://www.w3.org/2000/svg" width="128" height="128">
<path d="M0 0 C1.04994141 -0.01611328 2.09988281 -0.03222656 3.18164062 -0.04882812 C4.19291016 -0.04947266 5.20417969 -0.05011719 6.24609375 -0.05078125 C7.16962646 -0.05376221 8.09315918 -0.05674316 9.04467773 -0.05981445 C12.16739025 0.4019461 13.43828854 0.96169 15.5625 3.3125 C15.95302835 5.6369447 16.29108204 7.97115683 16.5625 10.3125 C17.73347733 10.30583817 18.90445465 10.29917633 20.11091614 10.29231262 C31.13234487 10.23156576 42.15373974 10.18655827 53.17529774 10.15706348 C58.84195227 10.1413903 64.50847193 10.12012178 70.17504883 10.08618164 C75.64096596 10.05364728 81.10675316 10.03565945 86.57275963 10.02786827 C88.66082493 10.02231411 90.74888292 10.01146855 92.83689308 9.99530983 C95.75575906 9.97361438 98.67408429 9.97052978 101.59301758 9.97192383 C102.89529297 9.95574509 102.89529297 9.95574509 104.22387695 9.9392395 C110.13928901 9.96992308 110.13928901 9.96992308 112.28469658 11.70656776 C113.96511336 13.81850097 113.93695881 15.07194392 113.93481445 17.75219727 C113.94104324 18.64644913 113.94727203 19.54070099 113.95368958 20.46205139 C113.93987495 21.90589455 113.93987495 21.90589455 113.92578125 23.37890625 C113.92652901 24.863657 113.92652901 24.863657 113.92729187 26.37840271 C113.92495128 28.470632 113.91522367 30.56286409 113.89868164 32.6550293 C113.87506636 35.86597728 113.87812368 39.07609651 113.88476562 42.28710938 C113.87918977 44.31771331 113.87208047 46.34831373 113.86328125 48.37890625 C113.86419266 49.34349258 113.86510406 50.30807892 113.86604309 51.30189514 C113.85651108 52.19299484 113.84697906 53.08409454 113.8371582 54.00219727 C113.83255081 54.78812759 113.82794342 55.57405792 113.82319641 56.38380432 C113.5625 58.3125 113.5625 58.3125 111.5625 60.3125 C109.0219304 60.88522732 106.55241479 61.32965699 103.98046875 61.70703125 C103.15935104 61.83181351 102.33823334 61.95659576 101.49223328 62.0851593 C88.39403979 64.00241479 75.21245912 65.33801902 62.0534668 66.76342773 C58.37837859 67.16252675 54.70386685 67.56686548 51.02929688 67.97070312 C43.87423788 68.75629798 36.71858354 69.53628693 29.5625 70.3125 C29.748125 71.240625 29.93375 72.16875 30.125 73.125 C30.5625 76.3125 30.5625 76.3125 29.5625 79.3125 C30.44533157 79.30805878 31.32816315 79.30361755 32.23774719 79.29904175 C40.55142246 79.25899292 48.86506539 79.2285298 57.17881489 79.20887566 C61.45315473 79.19843165 65.72741496 79.18426123 70.00170898 79.16162109 C74.12546256 79.13991466 78.24913949 79.12793602 82.37294579 79.12274551 C83.94744257 79.1190458 85.52193509 79.1118213 87.09639931 79.10103989 C89.29914084 79.08655406 91.50156432 79.08452082 93.7043457 79.08544922 C94.95899124 79.081008 96.21363678 79.07656677 97.50630188 79.07199097 C100.5625 79.3125 100.5625 79.3125 103.5625 81.3125 C104.5 83.625 104.5 83.625 104.5625 86.3125 C102.625 89.125 102.625 89.125 100.5625 91.3125 C101.036875 91.84875 101.51125 92.385 102 92.9375 C103.93319834 95.87596147 104.42187024 97.79675594 104.5625 101.3125 C103.25646141 105.23061578 102.16230465 106.89930124 98.75 109.25 C95.04379958 110.48540014 93.27018904 110.49580501 89.5625 109.3125 C84.98622881 106.15995763 84.98622881 106.15995763 83.5625 103.3125 C83.14352459 97.76107581 83.5452341 96.3412765 86.5625 91.3125 C68.4125 91.3125 50.2625 91.3125 31.5625 91.3125 C32.5525 92.3025 33.5425 93.2925 34.5625 94.3125 C35.75690419 99.1697437 36.12268033 101.14904854 33.9375 105.6875 C31.435974 108.45234453 30.18034493 109.53724751 26.5625 110.3125 C21.67688157 110.10893257 19.09387158 108.64207892 15.5625 105.3125 C14.0077331 102.20296621 14.27605563 99.74983239 14.5625 96.3125 C16.5625 92.875 16.5625 92.875 18.5625 90.3125 C17.9025 89.94125 17.2425 89.57 16.5625 89.1875 C14.5625 87.3125 14.5625 87.3125 14.0625 84.625 C14.5625 81.3125 14.5625 81.3125 16.74707031 77.97021484 C19.87685053 71.83170434 17.64832437 65.8586342 16.109375 59.4765625 C15.80973433 58.14812543 15.51259366 56.81912222 15.21783447 55.48959351 C14.43953808 52.00923826 13.62898215 48.53721631 12.81085205 45.06604004 C11.9814527 41.52354487 11.18085281 37.97457369 10.37890625 34.42578125 C9.47801778 30.44211741 8.57209008 26.46001333 7.64715576 22.48184204 C7.37397522 21.30656952 7.10079468 20.131297 6.81933594 18.92041016 C6.57632751 17.88308746 6.33331909 16.84576477 6.08294678 15.77700806 C5.5625 13.3125 5.5625 13.3125 5.5625 11.3125 C3.64824219 11.34730469 3.64824219 11.34730469 1.6953125 11.3828125 C0.0260475 11.40156829 -1.6432238 11.41976869 -3.3125 11.4375 C-4.57513672 11.46263672 -4.57513672 11.46263672 -5.86328125 11.48828125 C-6.66894531 11.49472656 -7.47460938 11.50117188 -8.3046875 11.5078125 C-9.04831543 11.51828613 -9.79194336 11.52875977 -10.55810547 11.53955078 C-12.4375 11.3125 -12.4375 11.3125 -14.4375 9.3125 C-14.75 5.8125 -14.75 5.8125 -14.4375 2.3125 C-9.87689567 -0.72790289 -5.36401986 -0.01640373 0 0 Z " fill="#FDFDFD" transform="translate(14.4375,8.6875)"/>
</svg>
